<?xml version="1.0" standalone="no"?>
<!DOCTYPE svg PUBLIC "-//W3C//DTD SVG 20010904//EN"
 "http://www.w3.org/TR/2001/REC-SVG-20010904/DTD/svg10.dtd">
<svg version="1.0" xmlns="http://www.w3.org/2000/svg"
 width="124.000000pt" height="109.000000pt" viewBox="0 0 124.000000 109.000000"
 preserveAspectRatio="xMidYMid meet">

<g transform="translate(0.000000,109.000000) scale(0.100000,-0.100000)"
fill="#000000" stroke="none">
<path d="M145 1020 c-55 -22 -85 -86 -85 -180 l0 -55 241 -190 c133 -104 251
-195 263 -202 36 -21 90 -15 132 13 21 15 139 106 261 202 l223 176 0 68 c0
81 -23 134 -68 161 -28 16 -69 17 -489 16 -252 0 -467 -4 -478 -9z m933 -92
c7 -7 12 -33 12 -58 l0 -47 -224 -176 c-126 -99 -234 -177 -245 -177 -12 0
-120 78 -246 177 -223 176 -225 178 -225 216 0 21 5 47 10 58 10 18 26 19 458
19 335 0 451 -3 460 -12z"/>
<path d="M40 445 c0 -282 3 -301 59 -348 l33 -27 485 0 c530 0 513 -2 558 58
19 25 20 45 23 301 l3 273 -46 -37 -45 -37 0 -217 c0 -155 -3 -220 -12 -229
-17 -17 -939 -17 -956 0 -9 9 -12 74 -12 229 l0 217 -45 36 -45 37 0 -256z"/>
</g>
</svg>
