<svg width="15" height="15" viewBox="0 0 15 15" fill="none" xmlns="http://www.w3.org/2000/svg">
<g clip-path="url(#clip0_618_2553)">
<path d="M3.42533 1.24479C3.36999 1.1736 3.30013 1.11499 3.2204 1.07287C3.14067 1.03075 3.05288 1.00608 2.96288 1.0005C2.87288 0.99491 2.78272 1.00854 2.69839 1.04047C2.61406 1.07241 2.53749 1.12192 2.47377 1.18573L1.5044 2.15604C1.05158 2.60979 0.884709 3.25198 1.08252 3.81541C1.90353 6.14753 3.23905 8.26488 4.99002 10.0104C6.73558 11.7614 8.85292 13.0969 11.185 13.9179C11.7485 14.1157 12.3906 13.9489 12.8444 13.496L13.8138 12.5267C13.8776 12.4629 13.9271 12.3864 13.959 12.302C13.991 12.2177 14.0046 12.1276 13.999 12.0376C13.9934 11.9476 13.9687 11.8598 13.9266 11.78C13.8845 11.7003 13.8259 11.6304 13.7547 11.5751L11.5919 9.89323C11.5158 9.83424 11.4274 9.79329 11.3332 9.77347C11.239 9.75366 11.1415 9.7555 11.0481 9.77885L8.99502 10.2917C8.72097 10.3602 8.43386 10.3565 8.16163 10.2811C7.8894 10.2057 7.64133 10.0611 7.44159 9.86135L5.13908 7.55791C4.93918 7.35826 4.79439 7.11024 4.71882 6.83801C4.64324 6.56577 4.63946 6.27861 4.70783 6.00448L5.22158 3.95135C5.24494 3.85797 5.24677 3.76051 5.22696 3.66632C5.20715 3.57212 5.1662 3.48366 5.10721 3.4076L3.42533 1.24479ZM1.76596 0.478851C1.93002 0.314741 2.12711 0.187411 2.34415 0.105314C2.56119 0.0232184 2.79322 -0.0117648 3.02482 0.002688C3.25642 0.0171408 3.48229 0.0806987 3.68744 0.189141C3.89259 0.297584 4.07233 0.44843 4.21471 0.631663L5.89658 2.79354C6.20502 3.1901 6.31377 3.70666 6.1919 4.19416L5.67908 6.24729C5.65257 6.35363 5.654 6.46502 5.68324 6.57064C5.71248 6.67626 5.76854 6.77253 5.84596 6.8501L8.1494 9.15354C8.22706 9.23112 8.32348 9.28727 8.42929 9.31651C8.53509 9.34575 8.64667 9.3471 8.75315 9.32041L10.8053 8.8076C11.0459 8.74745 11.297 8.74278 11.5397 8.79394C11.7823 8.8451 12.0101 8.95075 12.206 9.10291L14.3678 10.7848C15.145 11.3895 15.2163 12.5379 14.5206 13.2326L13.5513 14.202C12.8575 14.8957 11.8206 15.2004 10.8541 14.8601C8.38019 13.9897 6.13403 12.5734 4.28221 10.7164C2.42529 8.8648 1.00903 6.61897 0.138459 4.14541C-0.200916 3.17979 0.103772 2.14198 0.797522 1.44823L1.7669 0.478851H1.76596Z" fill="#C90C0F"/>
</g>
<defs>
<clipPath id="clip0_618_2553">
<rect width="15" height="15" fill="white"/>
</clipPath>
</defs>
</svg>
