<svg width="67" height="49" viewBox="0 0 67 49" fill="none" xmlns="http://www.w3.org/2000/svg">
<g clip-path="url(#clip0_539_3185)">
<path d="M60.4225 9.1875H6.09162C3.56868 9.1875 1.52344 11.2442 1.52344 13.7812V34.3766C1.52344 36.9136 3.56868 38.9703 6.09162 38.9703H60.4225C62.9455 38.9703 64.9907 36.9136 64.9907 34.3766V13.7812C64.9907 11.2442 62.9455 9.1875 60.4225 9.1875Z" stroke="#212529"/>
<path fill-rule="evenodd" clip-rule="evenodd" d="M18.6685 24.4081C19.3336 24.2814 20.0211 24.3557 20.6442 24.6216C21.2674 24.8875 21.7982 25.3331 22.1698 25.902C22.5414 26.471 22.737 27.138 22.732 27.8187C22.727 28.4994 22.5216 29.1633 22.1417 29.7267C21.7618 30.2901 21.2245 30.7278 20.5975 30.9844C19.9705 31.241 19.282 31.3051 18.6188 31.1685C17.9557 31.032 17.3476 30.701 16.8713 30.2173C16.395 29.7336 16.0719 29.1188 15.9428 28.4506C15.7931 27.5536 15.9929 26.6331 16.5004 25.8803C17.008 25.1275 17.7844 24.6003 18.6685 24.4081ZM12.1816 14.2406V28.0218C12.1857 29.8995 12.9302 31.6988 14.252 33.0251C15.5737 34.3514 17.3647 35.0962 19.2319 35.0962H19.4451C21.2624 35.0396 22.9908 34.2924 24.2821 33.0052C25.5734 31.7181 26.3316 29.9866 26.4039 28.1596V27.5625C26.3615 25.7388 25.6232 24.0014 24.3419 22.7101C23.0607 21.4188 21.3346 20.6726 19.5212 20.6259C18.2769 20.5956 17.0439 20.8688 15.9275 21.4221V13.4443H12.1816V14.2406Z" fill="#212529"/>
<path fill-rule="evenodd" clip-rule="evenodd" d="M43.2617 22.4634V34.8053H43.6272H46.9924V27.44C47.2817 27.5778 50.586 32.4931 50.9363 32.9984L52.3067 34.8666H57.1033C56.9382 34.5856 56.7497 34.3192 56.5399 34.0703C56.0374 33.3506 52.4438 28.8641 52.3067 28.5119C51.9559 28.1443 51.6539 27.7325 51.4083 27.2869C51.5317 26.9768 51.7307 26.703 51.9869 26.4906L53.9969 24.0406C54.4233 23.4741 54.8954 22.9687 55.276 22.5094L56.5704 20.8556H52.261C51.9717 20.9322 47.5406 26.9806 47.0381 27.2869V13.5056H43.2617V22.4634Z" fill="#212529"/>
<path fill-rule="evenodd" clip-rule="evenodd" d="M29.8618 34.8666H32.9072V13.4291H29.1309V34.8666H29.8618Z" fill="#212529"/>
<path fill-rule="evenodd" clip-rule="evenodd" d="M39.9728 34.8665C39.8206 34.0703 39.8967 21.8815 39.8967 20.7943L36.166 20.7178V34.8665H39.9728Z" fill="#212529"/>
<path fill-rule="evenodd" clip-rule="evenodd" d="M22.3997 12.4337C21.5524 12.5936 20.8027 13.0847 20.3146 13.7993C19.8266 14.5139 19.6401 15.3939 19.7959 16.2465V16.415C19.93 17.0674 20.2534 17.6652 20.7254 18.1327C21.1973 18.6003 21.7965 18.9167 22.4472 19.0418C23.098 19.1669 23.771 19.0952 24.3812 18.8358C24.9914 18.5763 25.5114 18.1408 25.8754 17.5841C26.2394 17.0275 26.4312 16.3748 26.4264 15.7086C26.4216 15.0424 26.2205 14.3926 25.8485 13.8414C25.4765 13.2901 24.9503 12.8621 24.3364 12.6116C23.7225 12.361 23.0486 12.2991 22.3997 12.4337Z" fill="#212529"/>
</g>
<defs>
<clipPath id="clip0_539_3185">
<rect width="67" height="49" fill="white"/>
</clipPath>
</defs>
</svg>
