<svg width="10" height="11" viewBox="0 0 10 11" fill="none" xmlns="http://www.w3.org/2000/svg">
<path d="M0.247936 0.743962C0.170339 0.821362 0.108774 0.913311 0.0667682 1.01454C0.0247622 1.11577 0.00314062 1.2243 0.00314062 1.3339C0.00314062 1.4435 0.0247622 1.55202 0.0667682 1.65325C0.108774 1.75448 0.170339 1.84643 0.247936 1.92383L3.82254 5.5001L0.244603 9.07636C0.0881428 9.2326 0.000156471 9.44459 2.08211e-07 9.66571C-7.71653e-05 9.77519 0.0214108 9.88362 0.0632368 9.9848C0.105063 10.086 0.166408 10.1779 0.243769 10.2554C0.321131 10.3329 0.412995 10.3943 0.514115 10.4363C0.615235 10.4783 0.723631 10.4999 0.833115 10.5C1.05423 10.5002 1.26634 10.4125 1.4228 10.2562L5.00074 6.6783L8.577 10.2562C8.73346 10.4125 8.94558 10.5002 9.16669 10.5C9.38781 10.4998 9.5998 10.4119 9.75604 10.2554C9.91228 10.0989 9.99996 9.88682 9.99981 9.66571C9.99965 9.44459 9.91167 9.2326 9.75521 9.07636L6.18061 5.5001L9.75687 1.92383C9.91333 1.76759 10.0013 1.5556 10.0015 1.33448C10.0016 1.11337 9.91395 0.901255 9.75771 0.744795C9.60147 0.588335 9.38947 0.500349 9.16836 0.500192C8.94725 0.500036 8.73513 0.587722 8.57867 0.743962L5.0024 4.32189L1.42447 0.743962C1.26821 0.587753 1.05632 0.5 0.83537 0.5C0.614425 0.5 0.402525 0.587753 0.246269 0.743962H0.247936Z" fill="#8A8A8A"/>
</svg>
