<svg width="47" height="47" viewBox="0 0 47 47" fill="none" xmlns="http://www.w3.org/2000/svg">
<path d="M3.81354 18.0689H43.2031C44.7569 18.0689 46.0166 19.3286 46.0166 20.8824V43.3907C46.0166 44.9445 44.7569 46.2042 43.2031 46.2042H3.81354C2.25971 46.2042 1 44.9445 1 43.3907V20.8824C1 19.3286 2.25971 18.0689 3.81354 18.0689Z" stroke="black" stroke-miterlimit="10" stroke-linecap="round" stroke-linejoin="round"/>
<path d="M40.7143 6.37719L8.5918 18.0688" stroke="black" stroke-miterlimit="10" stroke-linecap="round" stroke-linejoin="round"/>
<path d="M25.043 18.0688L42.6375 11.665" stroke="black" stroke-miterlimit="10" stroke-linecap="round" stroke-linejoin="round"/>
<path d="M45.3203 19.0288L39.4325 2.85209C38.901 1.39187 37.2865 0.639061 35.8264 1.17054L4.10002 12.718C2.63988 13.2494 1.88708 14.8639 2.41846 16.3241L3.08817 18.1642" stroke="black" stroke-miterlimit="10" stroke-linecap="round" stroke-linejoin="round"/>
<path d="M6.62695 23.6959H16.0054V29.323H6.62695V23.6959Z" stroke="black" stroke-miterlimit="10" stroke-linecap="round" stroke-linejoin="round"/>
<path d="M6.62891 34.9501H10.3803" stroke="black" stroke-miterlimit="10" stroke-linecap="round" stroke-linejoin="round"/>
<path d="M6.62891 40.5771H16.0074" stroke="black" stroke-miterlimit="10" stroke-linecap="round" stroke-linejoin="round"/>
<path d="M16.0059 34.9501H19.7572" stroke="black" stroke-miterlimit="10" stroke-linecap="round" stroke-linejoin="round"/>
<path d="M25.3848 34.95H29.1361" stroke="black" stroke-miterlimit="10" stroke-linecap="round" stroke-linejoin="round"/>
<path d="M34.7617 34.95H38.5131" stroke="black" stroke-miterlimit="10" stroke-linecap="round" stroke-linejoin="round"/>
</svg>
