<svg width="31" height="21" viewBox="0 0 31 21" fill="none" xmlns="http://www.w3.org/2000/svg">
<path fill-rule="evenodd" clip-rule="evenodd" d="M14.8141 6.00595C14.904 5.91705 15.011 5.84653 15.1286 5.7984C15.2463 5.75028 15.3725 5.72551 15.4999 5.72551C15.6274 5.72551 15.7535 5.75028 15.8712 5.7984C15.9889 5.84653 16.0958 5.91705 16.1858 6.00595L20.0608 9.82413C20.1509 9.91288 20.2223 10.0182 20.2711 10.1342C20.3198 10.2502 20.3449 10.3744 20.3449 10.4999C20.3449 10.6255 20.3198 10.7497 20.2711 10.8657C20.2223 10.9817 20.1509 11.087 20.0608 11.1758C19.9707 11.2645 19.8638 11.3349 19.7461 11.3829C19.6284 11.431 19.5023 11.4557 19.3749 11.4557C19.2476 11.4557 19.1214 11.431 19.0037 11.3829C18.8861 11.3349 18.7791 11.2645 18.6891 11.1758L16.4687 8.98604V16.2272C16.4687 16.4804 16.3666 16.7232 16.1849 16.9022C16.0033 17.0812 15.7569 17.1818 15.4999 17.1818C15.243 17.1818 14.9966 17.0812 14.8149 16.9022C14.6332 16.7232 14.5312 16.4804 14.5312 16.2272V8.98604L12.3108 11.1758C12.1289 11.355 11.8822 11.4557 11.6249 11.4557C11.3677 11.4557 11.121 11.355 10.9391 11.1758C10.7572 10.9965 10.655 10.7534 10.655 10.4999C10.655 10.2465 10.7572 10.0034 10.9391 9.82413L14.8141 6.00595Z" fill="#333333"/>
<path d="M8.53662 2.562C10.4731 0.916622 12.943 0.0079008 15.5 0C20.7119 0 25.0383 3.81818 25.5091 8.74173C28.5936 9.17127 31 11.7161 31 14.8394C31 18.2681 28.0976 21 24.5811 21H7.32569C3.30925 21 0 17.8805 0 13.9707C0 10.605 2.45288 7.81773 5.70012 7.11136C5.97719 5.46382 7.0525 3.822 8.53662 2.562ZM9.80181 4.00718C8.33512 5.25382 7.56787 6.75627 7.56787 7.93227V8.78755L6.70569 8.88109C3.999 9.17318 1.9375 11.3629 1.9375 13.9707C1.9375 16.7714 4.32062 19.0909 7.32569 19.0909H24.5811C27.0863 19.0909 29.0625 17.1589 29.0625 14.8394C29.0625 12.5179 27.0863 10.5859 24.5811 10.5859H23.6123V9.63136C23.6143 5.39318 20.0105 1.90909 15.5 1.90909C13.4073 1.91733 11.3864 2.6621 9.80181 4.00909V4.00718Z" fill="#333333"/>
</svg>
