<svg width="50" height="53" viewBox="0 0 50 53" fill="none" xmlns="http://www.w3.org/2000/svg">
<path d="M8.51636 42.9696H11.5833" stroke="#374957" stroke-width="3" stroke-miterlimit="10"/>
<path d="M33.177 42.9696H16.8198" stroke="#374957" stroke-width="3" stroke-miterlimit="10"/>
<path d="M39.9516 34.6635H10.0486C5.4611 34.6635 1.74219 38.3824 1.74219 42.9699C1.74219 47.5573 5.4611 51.2762 10.0486 51.2762H39.9516C44.539 51.2762 48.258 47.5573 48.258 42.9699C48.258 38.3824 44.539 34.6635 39.9516 34.6635Z" stroke="#374957" stroke-width="3" stroke-miterlimit="10"/>
<path d="M1.74219 42.9696V11.9676C3.57716 11.9676 5.06474 10.48 5.06474 8.64506V1.99995C10.5698 1.99995 15.0324 6.4626 15.0324 11.9676V34.6632" stroke="#374957" stroke-width="3" stroke-miterlimit="10"/>
<path d="M40.9736 14.7284C40.9736 16.7218 38.929 16.7218 38.929 18.7151C38.929 20.7087 40.9736 20.7087 40.9736 22.7021C40.9736 24.6955 38.929 24.6955 38.929 26.689C38.929 28.6826 40.9736 28.6826 40.9736 30.6763C40.9736 32.67 38.929 32.67 38.929 34.6637" stroke="#374957" stroke-width="3" stroke-miterlimit="10"/>
<path d="M38.4187 42.9696H41.4857" stroke="#374957" stroke-width="3" stroke-miterlimit="10"/>
<path d="M8.3873 18.0511H1.74219" stroke="#374957" stroke-width="3" stroke-miterlimit="10"/>
<path d="M8.3873 24.6963H1.74219" stroke="#374957" stroke-width="3" stroke-miterlimit="10"/>
</svg>
