<svg width="36" height="55" viewBox="0 0 36 55" fill="none" xmlns="http://www.w3.org/2000/svg">
<path d="M31.7216 53.3333H4.27821C3.10191 53.3333 2.14819 52.3796 2.14819 51.2032V24.2404C2.14819 15.4859 9.24508 8.38902 17.9995 8.38902H18.0003C26.7547 8.38902 33.8516 15.4859 33.8516 24.2404V51.2032C33.8516 52.3796 32.898 53.3333 31.7216 53.3333Z" stroke="#374957" stroke-width="3" stroke-miterlimit="10" stroke-linecap="round" stroke-linejoin="round"/>
<path d="M31.7215 53.3333H4.27821C3.1018 53.3333 2.14819 52.3796 2.14819 51.2032V29.8354C2.14819 21.0808 9.24518 14.7792 17.9999 14.7792C26.7545 14.7792 33.8515 21.0808 33.8515 29.8354V51.2032C33.8515 52.3796 32.8979 53.3333 31.7215 53.3333Z" stroke="#374957" stroke-width="3" stroke-miterlimit="10" stroke-linecap="round" stroke-linejoin="round"/>
<path d="M33.8516 39.9519H2.14819V38.3177C2.14819 34.7885 5.00912 31.9276 8.53823 31.9276H27.4616C30.9907 31.9276 33.8516 34.7885 33.8516 38.3177V39.9519Z" stroke="#374957" stroke-width="3" stroke-miterlimit="10" stroke-linecap="round" stroke-linejoin="round"/>
<path d="M26.6375 39.9521V45.0784" stroke="#374957" stroke-width="3" stroke-miterlimit="10" stroke-linecap="round" stroke-linejoin="round"/>
<path d="M12.0117 9.29504V6.2602C12.0117 3.90739 13.919 2.00007 16.2719 2.00007H19.7326C22.0854 2.00007 23.9927 3.90739 23.9927 6.2602V9.29504" stroke="#374957" stroke-width="3" stroke-miterlimit="10" stroke-linecap="round" stroke-linejoin="round"/>
</svg>
