<svg width="20" height="20" viewBox="0 0 20 20" fill="none" xmlns="http://www.w3.org/2000/svg">
<path d="M15.8379 3.98952C15.8379 4.09398 15.9223 4.17838 16.0267 4.17838C16.1312 4.17838 16.2156 4.09398 16.2156 3.98952C16.2156 3.88505 16.1312 3.80066 16.0267 3.80066C15.9223 3.80066 15.8379 3.88505 15.8379 3.98952Z" fill="#374957" stroke="#374957" stroke-width="1.5"/>
<path d="M18.6792 9.75131C18.9048 9.52562 19.0314 9.21999 19.0314 8.90111V2.18659C19.0314 1.86772 18.9048 1.56208 18.6792 1.33669C18.4538 1.111 18.1482 0.984478 17.8293 0.984478H11.1147C10.7959 0.984478 10.4903 1.111 10.2645 1.33669L1.35228 10.249C0.882572 10.7187 0.882572 11.4796 1.35228 11.949L8.06683 18.6636C8.53625 19.1333 9.29716 19.1333 9.76691 18.6636C11.8702 16.5602 17.2517 11.1788 18.6792 9.75131Z" stroke="#374957" stroke-width="1.5" stroke-miterlimit="10" stroke-linecap="round" stroke-linejoin="round"/>
<path d="M10.016 5.39781C10.6796 5.39781 11.2181 5.93665 11.2181 6.59989C11.2181 7.26346 10.6796 7.802 10.016 7.802C9.35251 7.802 8.81396 7.26346 8.81396 6.59989C8.81396 5.93665 9.35251 5.39781 10.016 5.39781Z" stroke="#374957" stroke-width="1.5" stroke-miterlimit="10" stroke-linecap="round" stroke-linejoin="round"/>
<path d="M10.016 12.198C10.6796 12.198 11.2181 12.7365 11.2181 13.4001C11.2181 14.0633 10.6796 14.6022 10.016 14.6022C9.35251 14.6022 8.81396 14.0633 8.81396 13.4001C8.81396 12.7365 9.35251 12.198 10.016 12.198Z" stroke="#374957" stroke-width="1.5" stroke-miterlimit="10" stroke-linecap="round" stroke-linejoin="round"/>
<path d="M6.4104 10H13.6229" stroke="#374957" stroke-width="1.5" stroke-miterlimit="10" stroke-linecap="round" stroke-linejoin="round"/>
</svg>
