<svg width="44" height="49" viewBox="0 0 44 49" fill="none" xmlns="http://www.w3.org/2000/svg">
<path d="M34.8369 12.933C27.7464 12.933 21.9985 18.6809 21.9985 25.7714" stroke="#374957" stroke-width="3" stroke-miterlimit="10"/>
<path d="M9.1604 12.9338C16.2509 12.9338 21.9988 7.09087 21.9988 0.000386775" stroke="#374957" stroke-width="3" stroke-miterlimit="10"/>
<path d="M21.9985 0.000386775C21.9985 7.09087 27.7464 12.9338 34.8369 12.9338" stroke="#374957" stroke-width="3" stroke-miterlimit="10"/>
<path d="M9.1604 12.933C16.2509 12.933 21.9988 18.6809 21.9988 25.7714" stroke="#374957" stroke-width="3" stroke-miterlimit="10"/>
<path d="M43.3975 38.6097C37.8827 38.6097 33.4121 43.1754 33.4121 48.6902" stroke="#374957" stroke-width="3" stroke-miterlimit="10"/>
<path d="M23.4258 38.6107C28.9406 38.6107 33.4112 34.1401 33.4112 28.6253" stroke="#374957" stroke-width="3" stroke-miterlimit="10"/>
<path d="M33.4121 28.6253C33.4121 34.1401 37.8827 38.6107 43.3975 38.6107" stroke="#374957" stroke-width="3" stroke-miterlimit="10"/>
<path d="M23.4258 38.6097C28.9406 38.6097 33.4112 43.1754 33.4112 48.6902" stroke="#374957" stroke-width="3" stroke-miterlimit="10"/>
<path d="M14.8683 30.0511C10.9292 30.0511 7.73584 33.2444 7.73584 37.1835" stroke="#374957" stroke-width="3" stroke-miterlimit="10"/>
<path d="M0.602539 30.0515C4.54163 30.0515 7.73496 26.8582 7.73496 22.9191" stroke="#374957" stroke-width="3" stroke-miterlimit="10"/>
<path d="M7.73584 22.9191C7.73584 26.8582 10.9292 30.0515 14.8683 30.0515" stroke="#374957" stroke-width="3" stroke-miterlimit="10"/>
<path d="M0.602539 30.0511C4.54163 30.0511 7.73496 33.2444 7.73496 37.1835" stroke="#374957" stroke-width="3" stroke-miterlimit="10"/>
<path d="M16.2937 42.889V40.0361" stroke="#374957" stroke-width="3" stroke-miterlimit="10"/>
<path d="M39.1169 25.7714V22.9184" stroke="#374957" stroke-width="3" stroke-miterlimit="10"/>
<path d="M4.88281 8.65356V5.8006" stroke="#374957" stroke-width="3" stroke-miterlimit="10"/>
<path d="M33.4121 2.85303V6.01858e-05" stroke="#374957" stroke-width="3" stroke-miterlimit="10"/>
</svg>
