<svg width="62" height="57" viewBox="0 0 62 57" fill="none" xmlns="http://www.w3.org/2000/svg">
<path d="M16.3279 31.8993C16.3279 29.5842 18.2046 27.7075 20.5198 27.7075C22.8348 27.7075 24.7116 29.5842 24.7116 31.8993" stroke="#374957" stroke-width="3" stroke-miterlimit="10"/>
<path d="M37.2793 31.8993C37.2793 29.5842 39.156 27.7075 41.4711 27.7075C43.7862 27.7075 45.663 29.5842 45.663 31.8993" stroke="#374957" stroke-width="3" stroke-miterlimit="10"/>
<path d="M23.7827 40.284C25.241 42.7553 27.9293 44.4142 31.0066 44.4142C34.0838 44.4142 36.7721 42.7553 38.2304 40.284" stroke="#374957" stroke-width="3" stroke-miterlimit="10"/>
<path d="M60.3429 31.1694C60.3429 34.6004 57.5949 37.3898 54.1784 37.4544C51.417 47.6659 42.0857 55.1794 30.9999 55.1794C19.9141 55.1794 10.5828 47.6659 7.82144 37.4544C4.40499 37.3898 1.65698 34.6004 1.65698 31.1694C1.65698 29.4331 2.36073 27.8613 3.49792 26.7229C4.60954 25.6125 6.13391 24.916 7.82144 24.8844C10.5828 14.6728 19.9141 7.15929 30.9999 7.15929C42.0857 7.15929 51.417 14.6728 54.1784 24.8844C55.8659 24.916 57.3903 25.6125 58.5019 26.7229C59.6391 27.8613 60.3429 29.4331 60.3429 31.1694Z" stroke="#374957" stroke-width="3" stroke-miterlimit="10"/>
<path d="M23.1789 14.9729C23.1789 19.288 26.677 22.786 30.9921 22.786C35.3072 22.786 38.8053 19.288 38.8053 14.9729C38.8053 10.6578 35.3072 7.15973 30.9921 7.15973H29.7676C25.8137 7.15973 22.6084 3.95441 22.6084 0.000418965" stroke="#374957" stroke-width="3" stroke-miterlimit="10"/>
<path d="M31.0017 7.15918H21.3936C17.4396 7.15918 14.2344 3.95386 14.2344 -1.22602e-05" stroke="#374957" stroke-width="3" stroke-miterlimit="10"/>
</svg>
