<svg width="53" height="54" viewBox="0 0 53 54" fill="none" xmlns="http://www.w3.org/2000/svg">
<path d="M34.9195 18.8405H18.079C15.7538 18.8405 13.8689 16.9555 13.8689 14.6303V6.21008C13.8689 3.88493 15.7538 1.99995 18.079 1.99995H34.9195C37.2448 1.99995 39.1296 3.88493 39.1296 6.21008V14.6303C39.1296 16.9555 37.2448 18.8405 34.9195 18.8405Z" stroke="#374957" stroke-width="3" stroke-miterlimit="10" stroke-linecap="round" stroke-linejoin="round"/>
<path d="M47.1295 35.2605H5.87028C3.54503 35.2605 1.66016 33.3755 1.66016 31.0504C1.66016 28.7252 3.54503 26.8402 5.87028 26.8402H47.1295C49.4548 26.8402 51.3396 28.7252 51.3396 31.0504C51.3396 33.3755 49.4548 35.2605 47.1295 35.2605Z" stroke="#374957" stroke-width="3" stroke-miterlimit="10" stroke-linecap="round" stroke-linejoin="round"/>
<path d="M10.0818 51.6798V35.2603" stroke="#374957" stroke-width="3" stroke-miterlimit="10" stroke-linecap="round" stroke-linejoin="round"/>
<path d="M42.9189 51.6798V35.2603" stroke="#374957" stroke-width="3" stroke-miterlimit="10" stroke-linecap="round" stroke-linejoin="round"/>
<path d="M18.0796 47.4697H34.9201" stroke="#374957" stroke-width="3" stroke-miterlimit="10" stroke-linecap="round" stroke-linejoin="round"/>
<path d="M26.5 26.8396V18.8404" stroke="#374957" stroke-width="3" stroke-miterlimit="10" stroke-linecap="round" stroke-linejoin="round"/>
</svg>
