<svg width="52" height="52" viewBox="0 0 52 52" fill="none" xmlns="http://www.w3.org/2000/svg">
<path d="M44.6538 25.8005C44.6538 36.1028 36.3021 44.4546 25.9997 44.4546C15.6974 44.4546 7.3457 36.1028 7.3457 25.8005C7.3457 15.4983 15.6974 7.14648 25.9997 7.14648C36.3021 7.14648 44.6538 15.4983 44.6538 25.8005Z" stroke="#374957" stroke-width="3" stroke-miterlimit="10"/>
<path d="M35.6486 25.8008C35.6486 31.1297 31.3287 35.4495 26 35.4495C20.6711 35.4495 16.3513 31.1297 16.3513 25.8008C16.3513 20.472 20.6711 16.1522 26 16.1522C31.3287 16.1522 35.6486 20.472 35.6486 25.8008Z" stroke="#374957" stroke-width="3" stroke-miterlimit="10"/>
<path d="M35.6492 29.0166H17.6384" stroke="#374957" stroke-width="3" stroke-miterlimit="10"/>
<path d="M17.6384 22.5844H35.6492" stroke="#374957" stroke-width="3" stroke-miterlimit="10"/>
<path d="M40.8164 16.1515L43.5829 13.3852C45.0102 11.9579 45.0102 9.64381 43.5829 8.21649C42.1556 6.78928 39.8414 6.78928 38.4141 8.21649L35.6479 10.9827" stroke="#374957" stroke-width="3" stroke-miterlimit="10"/>
<path d="M16.3515 39.8795L13.9803 42.2508C12.7569 43.4742 10.7735 43.4742 9.55012 42.2508C8.32672 41.0274 8.32672 39.0438 9.55012 37.8204L11.9211 35.4494" stroke="#374957" stroke-width="3" stroke-miterlimit="10"/>
<path d="M16.3515 10.983L13.9803 8.21653C12.7569 6.78927 10.7735 6.78927 9.55012 8.21653C8.32672 9.64379 8.32672 11.958 9.55012 13.3854L11.9211 16.1515" stroke="#374957" stroke-width="3" stroke-miterlimit="10"/>
<path d="M40.8164 35.4494L43.5829 37.8205C45.0102 39.0439 45.0102 41.0274 43.5829 42.2508C42.1556 43.4742 39.8414 43.4742 38.4141 42.2508L35.6479 39.8798" stroke="#374957" stroke-width="3" stroke-miterlimit="10"/>
<path d="M29.2161 8.43237V5.10677C29.2161 3.39081 27.7762 1.99994 25.9999 1.99994C24.2236 1.99994 22.7837 3.39081 22.7837 5.10677V8.43196" stroke="#374957" stroke-width="3" stroke-miterlimit="10"/>
<path d="M29.2161 43.1683V46.4938C29.2161 48.2098 27.7762 49.6007 25.9999 49.6007C24.2236 49.6007 22.7837 48.2098 22.7837 46.4938V43.1686" stroke="#374957" stroke-width="3" stroke-miterlimit="10"/>
<path d="M8.63263 22.5842H5.30702C3.59117 22.5842 2.2002 24.0241 2.2002 25.8004C2.2002 27.5766 3.59117 29.0166 5.30702 29.0166H8.63232" stroke="#374957" stroke-width="3" stroke-miterlimit="10"/>
<path d="M43.3674 22.5842H46.693C48.409 22.5842 49.7999 24.0241 49.7999 25.8004C49.7999 27.5766 48.409 29.0166 46.693 29.0166H43.3678" stroke="#374957" stroke-width="3" stroke-miterlimit="10"/>
</svg>
