<svg width="60" height="54" viewBox="0 0 60 54" fill="none" xmlns="http://www.w3.org/2000/svg">
<path d="M41.5118 14.9684C37.9365 14.9684 35.0278 12.0595 35.0278 8.48415C35.0278 4.90902 37.9365 2.00003 41.5118 2.00003C45.0872 2.00003 47.9958 4.90902 47.9958 8.48415C47.9958 12.0595 45.0872 14.9684 41.5118 14.9684Z" stroke="#374957" stroke-width="3" stroke-miterlimit="10" stroke-linecap="round" stroke-linejoin="round"/>
<path d="M39.2391 38.9141L24.388 24.0629L2.99686 45.4522C1.53327 46.9159 1.53327 49.2891 2.99686 50.7527C3.72865 51.4847 4.68794 51.8505 5.64711 51.8505C6.60628 51.8505 7.56544 51.4847 8.29735 50.7527L24.387 34.6629L31.2883 41.5643L27.4421 45.4105C25.9784 46.8744 25.9785 49.2474 27.4422 50.7111C28.9058 52.1749 31.2789 52.1747 32.7426 50.711L39.2391 44.2144C40.7028 42.7508 40.7028 40.3778 39.2391 38.9141Z" stroke="#374957" stroke-width="3" stroke-miterlimit="10" stroke-linecap="round" stroke-linejoin="round"/>
<path d="M32.982 32.6571L39.4551 26.1915L44.29 31.0265C45.0219 31.7583 45.9811 32.1244 46.9404 32.1244C47.8995 32.1244 48.8587 31.7583 49.5905 31.0265L57.0034 23.6138C58.4668 22.1502 58.4668 19.777 57.0034 18.3133C55.5395 16.8496 53.1665 16.8496 51.7028 18.3133L46.9404 23.0758L38.8105 14.9461C37.347 13.4824 34.9739 13.4824 33.5101 14.9461L24.3877 24.0628" stroke="#374957" stroke-width="3" stroke-miterlimit="10" stroke-linecap="round" stroke-linejoin="round"/>
<path d="M1.89917 17.812H8.89529" stroke="#374957" stroke-width="3" stroke-miterlimit="10" stroke-linecap="round" stroke-linejoin="round"/>
<path d="M12.0605 27.9081L3.99829 27.8247" stroke="#374957" stroke-width="3" stroke-miterlimit="10" stroke-linecap="round" stroke-linejoin="round"/>
<path d="M5.51416 7.80029H10.9444" stroke="#374957" stroke-width="3" stroke-miterlimit="10" stroke-linecap="round" stroke-linejoin="round"/>
<path d="M38.8048 14.9401L28.2119 4.34728C27.4801 3.61537 26.5208 3.24947 25.5616 3.24947C24.6024 3.24947 23.6433 3.61537 22.9112 4.34728L15.4987 11.76C14.0349 13.2236 14.0349 15.5967 15.4987 17.0605C16.9624 18.5241 19.3354 18.5241 20.7992 17.0605L25.5617 12.298L30.8593 17.5956" stroke="#374957" stroke-width="3" stroke-miterlimit="10" stroke-linecap="round" stroke-linejoin="round"/>
</svg>
