<svg width="53" height="46" viewBox="0 0 53 46" fill="none" xmlns="http://www.w3.org/2000/svg">
<path d="M49.2764 44.2545H3.72334C2.58492 44.2545 1.66211 43.3317 1.66211 42.1933V11.2749C1.66211 10.1365 2.58492 9.21367 3.72334 9.21367H49.2764C50.4149 9.21367 51.3377 10.1365 51.3377 11.2749V42.1933C51.3377 43.3317 50.4149 44.2545 49.2764 44.2545Z" stroke="#374957" stroke-width="3" stroke-miterlimit="10" stroke-linecap="round" stroke-linejoin="round"/>
<path d="M32.6835 1.99994H20.3161C19.1777 1.99994 18.2549 2.92275 18.2549 4.06117V9.21423H34.7447V4.06117C34.7447 2.92275 33.8219 1.99994 32.6835 1.99994Z" stroke="#374957" stroke-width="3" stroke-miterlimit="10" stroke-linecap="round" stroke-linejoin="round"/>
<path d="M51.3288 16.4285V11.2754C51.3288 10.137 50.406 9.21417 49.2676 9.21417H44.1145C44.1145 13.1985 47.3444 16.4285 51.3288 16.4285Z" stroke="#374957" stroke-width="3" stroke-miterlimit="10" stroke-linecap="round" stroke-linejoin="round"/>
<path d="M1.66211 16.4285V11.2754C1.66211 10.137 2.58492 9.21417 3.72334 9.21417H8.8764C8.8764 13.1985 5.64646 16.4285 1.66211 16.4285Z" stroke="#374957" stroke-width="3" stroke-miterlimit="10" stroke-linecap="round" stroke-linejoin="round"/>
<path d="M51.3288 37.0402V42.1933C51.3288 43.3317 50.406 44.2545 49.2676 44.2545H44.1145C44.1145 40.2702 47.3444 37.0402 51.3288 37.0402Z" stroke="#374957" stroke-width="3" stroke-miterlimit="10" stroke-linecap="round" stroke-linejoin="round"/>
<path d="M1.66211 37.0402V42.1933C1.66211 43.3317 2.58492 44.2545 3.72334 44.2545H8.8764C8.8764 40.2702 5.64646 37.0402 1.66211 37.0402Z" stroke="#374957" stroke-width="3" stroke-miterlimit="10" stroke-linecap="round" stroke-linejoin="round"/>
<path d="M40.9281 36.3922L35.1174 38.5071L31.5925 28.8225L37.4032 26.7075L40.9281 36.3922Z" stroke="#374957" stroke-width="3" stroke-miterlimit="10" stroke-linecap="round" stroke-linejoin="round"/>
<path d="M18.2489 29.8264C18.2489 31.5339 16.8645 32.9182 15.157 32.9182C13.4495 32.9182 12.0652 31.5339 12.0652 29.8264C12.0652 28.1189 13.4495 26.7345 15.157 26.7345C16.8645 26.7345 18.2489 28.1189 18.2489 29.8264Z" stroke="#374957" stroke-width="3" stroke-miterlimit="10" stroke-linecap="round" stroke-linejoin="round"/>
<path d="M30.8745 19.7701L26.502 24.1426L22.1294 19.7701L26.502 15.3975L30.8745 19.7701Z" stroke="#374957" stroke-width="3" stroke-miterlimit="10" stroke-linecap="round" stroke-linejoin="round"/>
</svg>
