<svg width="26" height="26" viewBox="0 0 26 26" fill="none" xmlns="http://www.w3.org/2000/svg">
<path fill-rule="evenodd" clip-rule="evenodd" d="M5.61951 3.46667L5.43077 2.21433C5.23943 0.941194 4.14266 0 2.85107 0C1.90825 0 0.869758 0 0.869758 0C0.389652 0 0 0.388267 0 0.866667C0 1.34507 0.389652 1.73333 0.869758 1.73333H2.85107C3.2816 1.73333 3.6469 2.04706 3.71126 2.47172L5.87608 16.8523C6.06743 18.1255 7.1642 19.0667 8.45579 19.0667H21.1699C22.4258 19.0667 23.5035 18.1757 23.7348 16.9459C24.1984 14.4829 25.1552 9.39727 25.6918 6.54594C25.8344 5.78587 25.6309 5.00155 25.1351 4.40615C24.6394 3.81075 23.9036 3.46667 23.1269 3.46667H5.61951ZM5.88044 5.2L7.5956 16.5949C7.65996 17.0196 8.02526 17.3333 8.45579 17.3333H21.1699C21.5883 17.3333 21.9475 17.0361 22.0249 16.6261L23.9818 6.22612C24.0297 5.97306 23.9618 5.71133 23.7966 5.51286C23.6313 5.31439 23.3861 5.2 23.1269 5.2H5.88044Z" fill="#C90C0F"/>
<path fill-rule="evenodd" clip-rule="evenodd" d="M9.56728 20.8C8.12696 20.8 6.95801 21.9648 6.95801 23.4C6.95801 24.8352 8.12696 26 9.56728 26C11.0076 26 12.1766 24.8352 12.1766 23.4C12.1766 21.9648 11.0076 20.8 9.56728 20.8ZM9.56728 22.5334C10.0474 22.5334 10.437 22.9216 10.437 23.4C10.437 23.8784 10.0474 24.2667 9.56728 24.2667C9.08718 24.2667 8.69752 23.8784 8.69752 23.4C8.69752 22.9216 9.08718 22.5334 9.56728 22.5334Z" fill="#C90C0F"/>
<path fill-rule="evenodd" clip-rule="evenodd" d="M20.0038 20.8C18.5635 20.8 17.3945 21.9648 17.3945 23.4C17.3945 24.8352 18.5635 26 20.0038 26C21.4441 26 22.6131 24.8352 22.6131 23.4C22.6131 21.9648 21.4441 20.8 20.0038 20.8ZM20.0038 22.5334C20.4839 22.5334 20.8736 22.9216 20.8736 23.4C20.8736 23.8784 20.4839 24.2667 20.0038 24.2667C19.5237 24.2667 19.134 23.8784 19.134 23.4C19.134 22.9216 19.5237 22.5334 20.0038 22.5334Z" fill="#C90C0F"/>
</svg>
