<?xml version="1.0" standalone="no"?>
<!DOCTYPE svg PUBLIC "-//W3C//DTD SVG 20010904//EN"
 "http://www.w3.org/TR/2001/REC-SVG-20010904/DTD/svg10.dtd">
<svg version="1.0" xmlns="http://www.w3.org/2000/svg"
 width="143.000000pt" height="142.000000pt" viewBox="0 0 143.000000 142.000000"
 preserveAspectRatio="xMidYMid meet">

<g transform="translate(0.000000,142.000000) scale(0.100000,-0.100000)"
fill="#000000" stroke="none">
<path d="M570 1305 c-292 -71 -495 -346 -477 -647 14 -228 146 -427 349 -528
138 -68 261 -84 405 -54 196 40 351 160 438 338 47 96 65 173 65 277 0 179
-57 316 -185 445 -87 88 -177 140 -290 169 -72 18 -229 18 -305 0z m284 -75
c145 -37 255 -116 336 -242 139 -214 108 -499 -73 -682 -73 -73 -144 -116
-245 -146 -97 -29 -245 -25 -337 10 -223 85 -365 286 -365 517 0 165 50 286
164 398 145 143 329 194 520 145z"/>
<path d="M402 718 c-15 -15 -15 -51 0 -66 9 -9 90 -12 304 -12 253 0 295 2
308 16 19 18 20 28 6 55 -10 18 -24 19 -308 19 -219 0 -301 -3 -310 -12z"/>
</g>
</svg>
