<svg width="26" height="26" viewBox="0 0 26 26" fill="none" xmlns="http://www.w3.org/2000/svg">
<g clip-path="url(#clip0_257_135)">
<path d="M12.7957 24.0564C9.82627 24.0564 6.97847 22.8768 4.87876 20.7771C2.77906 18.6774 1.59946 15.8296 1.59946 12.8602C1.59946 9.89073 2.77906 7.04292 4.87876 4.94322C6.97847 2.84352 9.82627 1.66392 12.7957 1.66392C15.7651 1.66392 18.6129 2.84352 20.7126 4.94322C22.8123 7.04292 23.9919 9.89073 23.9919 12.8602C23.9919 15.8296 22.8123 18.6774 20.7126 20.7771C18.6129 22.8768 15.7651 24.0564 12.7957 24.0564ZM12.7957 25.6559C16.1893 25.6559 19.444 24.3077 21.8436 21.9081C24.2433 19.5084 25.5914 16.2538 25.5914 12.8602C25.5914 9.46652 24.2433 6.21189 21.8436 3.81223C19.444 1.41257 16.1893 0.0644531 12.7957 0.0644531C9.40207 0.0644531 6.14743 1.41257 3.74777 3.81223C1.34811 6.21189 0 9.46652 0 12.8602C0 16.2538 1.34811 19.5084 3.74777 21.9081C6.14743 24.3077 9.40207 25.6559 12.7957 25.6559Z" fill="#374957"/>
<path d="M12.7953 6.46228C13.0074 6.46228 13.2108 6.54654 13.3608 6.69652C13.5108 6.84649 13.595 7.04991 13.595 7.26201V12.0604H18.3934C18.6055 12.0604 18.8089 12.1447 18.9589 12.2946C19.1089 12.4446 19.1932 12.648 19.1932 12.8601C19.1932 13.0722 19.1089 13.2756 18.9589 13.4256C18.8089 13.5756 18.6055 13.6599 18.3934 13.6599H13.595V18.4582C13.595 18.6704 13.5108 18.8738 13.3608 19.0237C13.2108 19.1737 13.0074 19.258 12.7953 19.258C12.5832 19.258 12.3798 19.1737 12.2298 19.0237C12.0798 18.8738 11.9956 18.6704 11.9956 18.4582V13.6599H7.19719C6.98509 13.6599 6.78168 13.5756 6.6317 13.4256C6.48172 13.2756 6.39746 13.0722 6.39746 12.8601C6.39746 12.648 6.48172 12.4446 6.6317 12.2946C6.78168 12.1447 6.98509 12.0604 7.19719 12.0604H11.9956V7.26201C11.9956 7.04991 12.0798 6.84649 12.2298 6.69652C12.3798 6.54654 12.5832 6.46228 12.7953 6.46228Z" fill="#374957"/>
</g>
<defs>
<clipPath id="clip0_257_135">
<rect width="25.5914" height="25.5914" fill="white" transform="translate(0 0.0644531)"/>
</clipPath>
</defs>
</svg>
