<svg width="14" height="13" viewBox="0 0 14 13" fill="none" xmlns="http://www.w3.org/2000/svg">
<g clip-path="url(#clip0_73_2092)">
<path d="M2.46443 13H11.5355C12.4865 13 13.2592 12.2272 13.2592 11.2763V2.68665C13.2592 1.73573 12.4865 0.962945 11.5355 0.962945H10.8518V0.481473C10.8518 0.216655 10.6352 0 10.3703 0C10.1055 0 9.88886 0.216655 9.88886 0.481473V0.962945H4.11111V0.481473C4.11111 0.216655 3.89442 0 3.6296 0C3.36478 0 3.14813 0.216655 3.14813 0.481473V0.962945H2.46443C1.51351 0.962945 0.740723 1.73573 0.740723 2.68665V11.2763C0.740723 12.2272 1.51351 13 2.46443 13ZM1.70371 2.68665C1.70371 2.26778 2.04555 1.92593 2.46443 1.92593H3.14813V2.4074C3.14813 2.67222 3.36478 2.88888 3.6296 2.88888C3.89442 2.88888 4.11107 2.67222 4.11107 2.4074V1.92593H9.88886V2.4074C9.88886 2.67222 10.1055 2.88888 10.3703 2.88888C10.6352 2.88888 10.8518 2.67222 10.8518 2.4074V1.92593H11.5355C11.9544 1.92593 12.2962 2.26778 12.2962 2.68665V4.0926H1.70371V2.68665ZM1.70371 5.05554H12.2963V11.2763C12.2963 11.6952 11.9545 12.037 11.5356 12.037H2.46443C2.04555 12.037 1.70371 11.6952 1.70371 11.2763V5.05554Z" fill="#C90C0F"/>
</g>
<defs>
<clipPath id="clip0_73_2092">
<rect width="13" height="13" fill="white" transform="translate(0.5)"/>
</clipPath>
</defs>
</svg>
