<svg width="34" height="34" viewBox="0 0 34 34" fill="none" xmlns="http://www.w3.org/2000/svg">
<g clip-path="url(#clip0_73_1833)">
<path fill-rule="evenodd" clip-rule="evenodd" d="M29.1682 17.5009C29.3089 17.3602 29.3879 17.1694 29.3879 16.9705C29.3879 16.7716 29.3089 16.5809 29.1682 16.4402L22.8043 10.0762C22.6636 9.93559 22.4729 9.85657 22.2739 9.85657C22.075 9.85657 21.8843 9.93559 21.7436 10.0762C21.603 10.2169 21.5239 10.4077 21.5239 10.6066C21.5239 10.8055 21.603 10.9963 21.7436 11.1369L26.8274 16.2206L5.30338 16.2196C5.20476 16.2196 5.10711 16.239 5.016 16.2767C4.9249 16.3145 4.84211 16.3698 4.77238 16.4395C4.70265 16.5093 4.64733 16.592 4.60959 16.6832C4.57186 16.7743 4.55243 16.8719 4.55243 16.9705C4.55243 17.0692 4.57186 17.1668 4.60959 17.2579C4.64733 17.349 4.70265 17.4318 4.77238 17.5015C4.84211 17.5713 4.9249 17.6266 5.016 17.6643C5.10711 17.7021 5.20476 17.7215 5.30338 17.7215L26.8274 17.7204L21.7436 22.8042C21.603 22.9448 21.5239 23.1356 21.5239 23.3345C21.5239 23.5334 21.603 23.7242 21.7436 23.8648C21.8843 24.0055 22.075 24.0845 22.2739 24.0845C22.4729 24.0845 22.6636 24.0055 22.8043 23.8648L29.1682 17.5009Z" fill="#1C2026"/>
</g>
<defs>
<clipPath id="clip0_73_1833">
<rect width="24" height="24" fill="white" transform="translate(16.9707) rotate(45)"/>
</clipPath>
</defs>
</svg>
