<svg width="20" height="19" viewBox="0 0 20 19" fill="none" xmlns="http://www.w3.org/2000/svg">
<path d="M8.62712 8.12716C8.62712 8.96962 7.94415 9.65259 7.10169 9.65259H2.52542C1.68297 9.65259 1 8.96962 1 8.12716V2.02547C1 1.18302 1.68297 0.500046 2.52542 0.500046H7.10169C7.94415 0.500046 8.62712 1.18302 8.62712 2.02547V8.12716Z" stroke="black" stroke-miterlimit="10"/>
<path d="M18.9982 16.9746C18.9982 17.817 18.3152 18.5 17.4728 18.5H12.8965C12.0541 18.5 11.3711 17.817 11.3711 16.9746V10.8729C11.3711 10.0304 12.0541 9.34746 12.8965 9.34746H17.4728C18.3152 9.34746 18.9982 10.0304 18.9982 10.8729V16.9746Z" stroke="black" stroke-miterlimit="10"/>
<path d="M8.62712 16.9746C8.62712 17.817 7.94415 18.5 7.10169 18.5H2.52542C1.68297 18.5 1 17.817 1 16.9746V13.9237C1 13.0813 1.68297 12.3983 2.52542 12.3983H7.10169C7.94415 12.3983 8.62712 13.0813 8.62712 13.9237V16.9746Z" stroke="black" stroke-miterlimit="10"/>
<path d="M18.9982 5.07638C18.9982 5.91884 18.3152 6.60181 17.4728 6.60181H12.8965C12.0541 6.60181 11.3711 5.91884 11.3711 5.07638V2.02554C11.3711 1.18308 12.0541 0.500112 12.8965 0.500112H17.4728C18.3152 0.500112 18.9982 1.18308 18.9982 2.02554V5.07638Z" stroke="black" stroke-miterlimit="10"/>
</svg>
