<svg width="27" height="27" viewBox="0 0 27 27" fill="none" xmlns="http://www.w3.org/2000/svg">
<g clip-path="url(#clip0_498_13971)">
<path d="M0.797883 14.2466C0.798188 14.2469 0.798441 14.2472 0.798798 14.2476L6.10564 19.7319C6.50321 20.1428 7.14625 20.1413 7.54199 19.7284C7.93768 19.3155 7.93615 18.6477 7.53859 18.2368L3.97557 14.5547L25.4844 14.5547C26.0453 14.5547 26.5 14.0825 26.5 13.5C26.5 12.9175 26.0453 12.4453 25.4844 12.4453L3.97562 12.4453L7.53854 8.76319C7.9361 8.35228 7.93763 7.68451 7.54194 7.27165C7.1462 6.85869 6.50311 6.85726 6.10559 7.26806L0.798747 12.7524C0.798442 12.7528 0.798188 12.7531 0.797833 12.7534C0.400063 13.1657 0.401331 13.8357 0.797883 14.2466Z" fill="#253037"/>
</g>
<defs>
<clipPath id="clip0_498_13971">
<rect width="26" height="27" fill="white" transform="translate(26.5 27) rotate(-180)"/>
</clipPath>
</defs>
</svg>
