<svg width="20" height="19" viewBox="0 0 20 19" fill="none" xmlns="http://www.w3.org/2000/svg">
<path d="M19 9.5C19 14.4706 14.9705 18.5 10 18.5C5.02935 18.5 1 14.4706 1 9.5C1 4.52935 5.02935 0.499999 10 0.499999C14.9705 0.499999 19 4.52935 19 9.5Z" stroke="#333333" stroke-miterlimit="10" stroke-linecap="round" stroke-linejoin="round"/>
<path d="M13.5985 8.30002C13.5985 10.2882 11.9868 11.9 9.99847 11.9C8.01011 11.9 6.39844 10.2882 6.39844 8.30002C6.39844 6.31185 8.01011 4.70006 9.99847 4.70006C11.9868 4.70006 13.5985 6.31185 13.5985 8.30002Z" stroke="#333333" stroke-miterlimit="10" stroke-linecap="round" stroke-linejoin="round"/>
<path d="M4.62891 16.7233C4.91683 14.012 7.21097 11.9 9.99855 11.9C12.7862 11.9 15.0803 14.0122 15.3681 16.7234" stroke="#333333" stroke-miterlimit="10" stroke-linecap="round" stroke-linejoin="round"/>
</svg>
