<svg width="279" height="40" viewBox="0 0 279 40" fill="none" xmlns="http://www.w3.org/2000/svg">
<g clip-path="url(#clip0_580_2451)">
<path d="M51.2485 17.351V18.3975C51.2485 22.2289 51.0122 28.8452 50.8434 30.6962C50.3764 35.2252 47.884 37.8976 43.2368 38.826C39.2873 39.6361 35.2309 39.8724 24.7269 39.8724C11.4379 39.8724 7.3196 39.3492 4.0677 37.1437C0.635753 34.8764 0 32.0352 0 19.3258C0 1.22087 1.68221 0 26.7523 0C41.1439 0 46.4831 0.928312 49.0374 4.00018C50.6633 5.91869 51.1247 8.29292 51.181 13.9866H39.3998C39.3436 11.7192 39.2254 11.2523 38.4715 10.7347C37.3069 9.91888 34.5839 9.6882 25.7621 9.6882C11.8318 9.6882 11.7699 9.75009 11.7699 19.7871C11.7699 26.3416 12.1187 28.3163 13.3958 29.3628C14.3804 30.173 15.4269 30.3474 18.735 30.4655L25.6439 30.5837C39.3998 30.5837 39.7486 30.4655 39.7486 26.1728V25.0701H24.2543V17.3566H51.2428L51.2485 17.351Z" fill="#1D1D1B"/>
<path d="M181.617 26.4653C181.617 28.7833 181.848 29.5372 182.776 30.1223C183.879 30.82 185.156 30.9381 193.455 30.9381C201.89 30.9381 206.108 29.7979 206.108 27.5174C206.108 25.1938 205.236 24.6143 201.466 24.5524L192.177 24.2036L185.91 23.9167L182.77 23.8042C173.195 23.5116 170.528 21.0755 170.528 12.5406C170.528 5.17041 172.615 1.86224 177.955 0.703256C180.216 0.241913 185.555 0.00561523 194.844 0.00561523C206.102 0.00561523 210.164 0.523219 212.893 2.38547C215.216 3.94954 216.145 6.38565 216.145 10.971C216.145 11.2072 216.145 12.0174 216.088 12.7713H204.712C204.594 10.6221 204.42 10.0989 203.553 9.57567C202.569 8.99618 201.117 8.88366 192.757 8.88366C182.776 8.88366 181.96 9.11433 181.96 11.9612C181.96 13.4127 182.484 14.1666 183.699 14.4535C184.745 14.7461 187.935 14.9149 196.121 15.1512C208.887 15.5563 211.385 15.8488 213.877 17.4129C216.55 19.157 217.529 21.7675 217.529 27.1686C217.529 33.8975 215.903 37.2056 211.897 38.7134C209.579 39.5798 204.701 39.878 193.156 39.878C181.612 39.878 176.441 39.3548 173.712 37.6163C171.046 35.9341 170.174 33.6724 170.174 28.3276V26.471H181.606L181.617 26.4653Z" fill="#1D1D1B"/>
<path d="M234.39 7.17331V6.36315C234.39 0.708882 235.476 0.00561523 244.208 0.00561523C251.393 0.00561523 252.242 0.0900072 253.379 0.905797C254.543 1.71596 254.903 2.94808 254.903 5.91868C254.903 8.12975 254.695 9.22685 254.155 10.1158C253.407 11.3198 251.803 11.9386 248.883 12.1074C241.648 12.6082 240.647 12.6982 240.303 12.8613C239.662 13.137 239.476 13.5027 239.454 14.431V14.6279H255.185V18.9094H234.649C234.57 17.9867 234.57 17.6773 234.57 16.7827C234.57 13.6715 234.672 12.2481 234.959 11.3817C235.499 9.64318 236.613 8.93992 239.296 8.55171C239.505 8.52358 241.958 8.3323 246.712 7.91034C249.761 7.66279 249.992 7.52213 249.992 6.0087C249.992 4.91723 249.812 4.5234 249.165 4.32649C248.703 4.1577 248.006 4.12957 245.266 4.12957C241.929 4.12957 240.562 4.21396 240.022 4.46714C239.583 4.63592 239.476 5.13665 239.454 6.53756V7.18456H234.39V7.17331Z" fill="#C90C0F"/>
<path d="M278.927 15.4325H275.911V18.9039H271.433V15.4325H259.1V8.28735L268.282 0.225098H275.911V11.2298H278.927V15.4325ZM271.433 4.56847H270.482L263.314 10.5097V11.2354H271.427V4.56285L271.433 4.56847Z" fill="#C90C0F"/>
<path d="M149.025 17.0078H136.665V39.8162H149.025V17.0078Z" fill="#1D1D1B"/>
<path d="M73.5222 17.0078V39.8105H85.3033V25.8802H113.985V17.0078H85.3033H73.5222Z" fill="#1D1D1B"/>
<path d="M165.96 4.25342H119.741V13.334H165.96V4.25342Z" fill="#C90C0F"/>
<path d="M113.985 4.25342H73.5222V13.334H113.985V4.25342Z" fill="#C90C0F"/>
<path d="M68.3406 4.25342H55.98V13.334H68.3406V4.25342Z" fill="#C90C0F"/>
<path d="M68.3406 17.0078H55.98V39.8162H68.3406V17.0078Z" fill="#1D1D1B"/>
<path d="M229.642 34.9045V39.8105H223.74V34.9045H229.642Z" fill="#1D1D1B"/>
<path d="M234.936 22.8928H246.605C249.823 22.8928 250.284 22.9153 251.224 23.0391C254.442 23.523 255.359 24.8957 255.359 29.2335C255.359 32.9917 254.667 34.4602 252.625 35.1972C251.477 35.5798 250.329 35.681 246.65 35.681H240.112V39.8162H234.93V22.8984L234.936 22.8928ZM246.605 31.4389C249.001 31.4108 249.108 31.4108 249.541 31.1632C250.025 30.8594 250.177 30.4037 250.177 29.2335C250.177 28.0632 249.947 27.5119 249.283 27.2812C248.923 27.1574 248.872 27.1574 246.599 27.1293H240.112V31.4445H246.599L246.605 31.4389Z" fill="#1D1D1B"/>
<path d="M265.272 22.8928V35.501H279.006V39.8162H259.106V22.8984H265.272V22.8928Z" fill="#1D1D1B"/>
</g>
<defs>
<clipPath id="clip0_580_2451">
<rect width="279" height="39.8724" fill="white"/>
</clipPath>
</defs>
</svg>
