<svg width="259" height="50" viewBox="0 0 259 50" fill="none" xmlns="http://www.w3.org/2000/svg">
<path d="M5.71953 0.221327H253.28C254.817 0.221327 256.2 0.681409 257.193 1.41445C258.187 2.14755 258.779 3.14241 258.779 4.22124V45.7788C258.779 46.8576 258.187 47.8525 257.193 48.5855C256.2 49.3186 254.817 49.7787 253.28 49.7787H5.71953C4.18256 49.7787 2.79987 49.3186 1.80664 48.5855C0.813342 47.8525 0.221327 46.8576 0.221327 45.7788V4.22124C0.221327 3.14241 0.813342 2.14755 1.80664 1.41445C2.79987 0.681409 4.18256 0.221327 5.71953 0.221327Z" fill="#F8F8F8" stroke="#808080" stroke-width="0.442654"/>
<path d="M225.384 27.2055C224.167 29.8029 221.551 31.6064 218.519 31.6064C215.67 31.6064 213.185 30.0147 211.885 27.6707L216.011 23.5548H203.69C203.687 23.6855 203.681 23.8161 203.681 23.9468C203.681 24.0775 203.687 24.2081 203.69 24.3388V35.8451L206.64 32.9032C209.348 36.5459 213.665 38.9078 218.519 38.9078C223.373 38.9078 227.977 36.3816 230.661 32.527L225.384 27.2074V27.2055Z" fill="#AAAAAA"/>
<path d="M218.519 8.98987H206.33L209.425 12.1436C206.031 14.8083 203.81 18.9223 203.692 23.5569H210.943C211.074 20.9495 212.506 18.6887 214.591 17.4078L218.521 21.4108V8.98987H218.519Z" fill="#2B80F7"/>
<path d="M230.051 14.5549C227.329 11.1636 223.174 8.98987 218.52 8.98987V16.2892C221.167 16.2892 223.492 17.6671 224.849 19.7439L221.027 23.5569H233.348V11.2666L230.051 14.5549Z" fill="#0A28AE"/>
<path d="M72.6575 21.6358V31.7062H71.3157L66.2459 23.939V31.7062H64.9111V21.6358H66.2459L71.3365 29.4237V21.6358H72.6575ZM76.2195 24.2226V31.7062H74.933V24.2226H76.2195ZM74.8362 22.2375C74.8362 22.03 74.8984 21.8548 75.0229 21.7119C75.152 21.5689 75.3411 21.4975 75.5901 21.4975C75.8345 21.4975 76.0212 21.5689 76.1503 21.7119C76.284 21.8548 76.3509 22.03 76.3509 22.2375C76.3509 22.4358 76.284 22.6064 76.1503 22.7494C76.0212 22.8877 75.8345 22.9568 75.5901 22.9568C75.3411 22.9568 75.152 22.8877 75.0229 22.7494C74.8984 22.6064 74.8362 22.4358 74.8362 22.2375ZM81.3792 31.8445C80.8581 31.8445 80.3855 31.7569 79.9613 31.5817C79.5417 31.4019 79.1797 31.1506 78.8754 30.8278C78.5757 30.505 78.3451 30.1223 78.1838 29.6797C78.0224 29.237 77.9417 28.7528 77.9417 28.2272V27.9367C77.9417 27.3281 78.0316 26.7863 78.2114 26.3113C78.3913 25.8318 78.6356 25.426 78.9446 25.094C79.2535 24.762 79.6039 24.5107 79.9959 24.3401C80.3878 24.1695 80.7936 24.0842 81.2132 24.0842C81.748 24.0842 82.2091 24.1765 82.5965 24.3609C82.9884 24.5453 83.3089 24.8035 83.5579 25.1355C83.8069 25.4629 83.9913 25.8502 84.1112 26.2975C84.2311 26.7402 84.291 27.2243 84.291 27.75V28.324H78.7025V27.2796H83.0115V27.1828C82.993 26.8508 82.9238 26.5281 82.804 26.2145C82.6887 25.901 82.5042 25.6427 82.2506 25.4399C81.997 25.237 81.6512 25.1355 81.2132 25.1355C80.9227 25.1355 80.6552 25.1978 80.4109 25.3223C80.1665 25.4422 79.9567 25.622 79.7815 25.8618C79.6063 26.1015 79.4702 26.3943 79.3734 26.7402C79.2766 27.086 79.2282 27.4848 79.2282 27.9367V28.2272C79.2282 28.5822 79.2766 28.9165 79.3734 29.2301C79.4748 29.539 79.6201 29.8111 79.8091 30.0462C80.0028 30.2814 80.2356 30.4658 80.5077 30.5995C80.7844 30.7333 81.0979 30.8001 81.4483 30.8001C81.9002 30.8001 82.2829 30.7079 82.5965 30.5235C82.91 30.339 83.1844 30.0923 83.4195 29.7834L84.1942 30.399C84.0328 30.6433 83.8276 30.8762 83.5786 31.0975C83.3296 31.3189 83.023 31.4987 82.6587 31.637C82.2991 31.7753 81.8725 31.8445 81.3792 31.8445ZM89.3331 24.2226H90.6196V32.5984C90.6196 33.0549 90.5458 33.4422 90.3982 33.7604C90.2553 34.0785 90.0386 34.3183 89.7481 34.4797C89.4622 34.6457 89.1003 34.7287 88.6622 34.7287C88.5469 34.7287 88.4132 34.7171 88.2611 34.6941C88.1043 34.671 87.9729 34.6434 87.8668 34.6111L87.8737 33.5805C87.9613 33.599 88.0605 33.6128 88.1711 33.622C88.2818 33.6359 88.3786 33.6428 88.4616 33.6428C88.6507 33.6428 88.8098 33.6082 88.9389 33.539C89.068 33.4699 89.1648 33.3592 89.2294 33.207C89.2985 33.0549 89.3331 32.852 89.3331 32.5984V24.2226ZM89.2017 22.2375C89.2017 22.03 89.2662 21.8548 89.3954 21.7119C89.5245 21.5689 89.7112 21.4975 89.9556 21.4975C90.2046 21.4975 90.3936 21.5689 90.5227 21.7119C90.6518 21.8548 90.7164 22.03 90.7164 22.2375C90.7164 22.4358 90.6518 22.6064 90.5227 22.7494C90.3936 22.8877 90.2046 22.9568 89.9556 22.9568C89.7112 22.9568 89.5245 22.8877 89.3954 22.7494C89.2662 22.6064 89.2017 22.4358 89.2017 22.2375ZM95.7931 31.8445C95.272 31.8445 94.7994 31.7569 94.3752 31.5817C93.9556 31.4019 93.5936 31.1506 93.2893 30.8278C92.9896 30.505 92.7591 30.1223 92.5977 29.6797C92.4363 29.237 92.3556 28.7528 92.3556 28.2272V27.9367C92.3556 27.3281 92.4455 26.7863 92.6253 26.3113C92.8052 25.8318 93.0496 25.426 93.3585 25.094C93.6674 24.762 94.0179 24.5107 94.4098 24.3401C94.8017 24.1695 95.2075 24.0842 95.6271 24.0842C96.162 24.0842 96.6231 24.1765 97.0104 24.3609C97.4023 24.5453 97.7228 24.8035 97.9718 25.1355C98.2208 25.4629 98.4052 25.8502 98.5251 26.2975C98.645 26.7402 98.7049 27.2243 98.7049 27.75V28.324H93.1164V27.2796H97.4254V27.1828C97.4069 26.8508 97.3378 26.5281 97.2179 26.2145C97.1026 25.901 96.9182 25.6427 96.6646 25.4399C96.411 25.237 96.0651 25.1355 95.6271 25.1355C95.3366 25.1355 95.0692 25.1978 94.8248 25.3223C94.5804 25.4422 94.3706 25.622 94.1954 25.8618C94.0202 26.1015 93.8841 26.3943 93.7873 26.7402C93.6905 27.086 93.6421 27.4848 93.6421 27.9367V28.2272C93.6421 28.5822 93.6905 28.9165 93.7873 29.2301C93.8887 29.539 94.034 29.8111 94.223 30.0462C94.4167 30.2814 94.6496 30.4658 94.9216 30.5995C95.1983 30.7333 95.5118 30.8001 95.8622 30.8001C96.3141 30.8001 96.6968 30.7079 97.0104 30.5235C97.3239 30.339 97.5983 30.0923 97.8334 29.7834L98.6081 30.399C98.4467 30.6433 98.2415 30.8762 97.9925 31.0975C97.7435 31.3189 97.4369 31.4987 97.0726 31.637C96.713 31.7753 96.2865 31.8445 95.7931 31.8445ZM104.556 29.7212C104.556 29.5367 104.515 29.3661 104.432 29.2093C104.353 29.0479 104.19 28.9027 103.941 28.7736C103.696 28.6399 103.327 28.5246 102.834 28.4278C102.419 28.3402 102.043 28.2364 101.707 28.1165C101.375 27.9966 101.091 27.8514 100.856 27.6808C100.625 27.5102 100.448 27.3096 100.323 27.0791C100.199 26.8485 100.137 26.5788 100.137 26.2698C100.137 25.9747 100.201 25.6958 100.33 25.4329C100.464 25.1701 100.651 24.9373 100.891 24.7344C101.135 24.5315 101.428 24.3724 101.769 24.2571C102.11 24.1419 102.491 24.0842 102.91 24.0842C103.51 24.0842 104.021 24.1903 104.446 24.4024C104.87 24.6145 105.195 24.8981 105.421 25.2531C105.647 25.6035 105.76 25.9932 105.76 26.422H104.48C104.48 26.2145 104.418 26.0139 104.293 25.8203C104.174 25.622 103.996 25.4583 103.761 25.3292C103.53 25.2001 103.247 25.1355 102.91 25.1355C102.555 25.1355 102.267 25.1909 102.046 25.3015C101.829 25.4076 101.67 25.5436 101.568 25.7096C101.471 25.8756 101.423 26.0508 101.423 26.2353C101.423 26.3736 101.446 26.4981 101.492 26.6087C101.543 26.7148 101.631 26.8139 101.755 26.9062C101.88 26.9938 102.055 27.0768 102.281 27.1551C102.507 27.2335 102.795 27.3119 103.145 27.3903C103.759 27.5286 104.263 27.6946 104.66 27.8883C105.057 28.0819 105.352 28.3194 105.545 28.6007C105.739 28.882 105.836 29.2232 105.836 29.6243C105.836 29.9517 105.767 30.2514 105.628 30.5235C105.495 30.7955 105.299 31.0307 105.04 31.2289C104.787 31.4226 104.482 31.5748 104.127 31.6854C103.777 31.7915 103.383 31.8445 102.945 31.8445C102.285 31.8445 101.727 31.7269 101.271 31.4918C100.814 31.2566 100.469 30.9523 100.233 30.5788C99.9983 30.2053 99.8807 29.8111 99.8807 29.3961H101.167C101.186 29.7465 101.287 30.0255 101.471 30.233C101.656 30.4359 101.882 30.5811 102.149 30.6687C102.417 30.7517 102.682 30.7932 102.945 30.7932C103.295 30.7932 103.588 30.7471 103.823 30.6549C104.063 30.5627 104.245 30.4359 104.369 30.2745C104.494 30.1131 104.556 29.9286 104.556 29.7212ZM110.65 24.2226V25.2047H106.604V24.2226H110.65ZM107.973 22.4035H109.253V29.8526C109.253 30.1062 109.292 30.2975 109.37 30.4266C109.448 30.5557 109.55 30.641 109.674 30.6825C109.799 30.724 109.933 30.7448 110.076 30.7448C110.182 30.7448 110.292 30.7356 110.408 30.7171C110.527 30.6941 110.617 30.6756 110.677 30.6618L110.684 31.7062C110.583 31.7385 110.449 31.7684 110.283 31.7961C110.122 31.8284 109.926 31.8445 109.695 31.8445C109.382 31.8445 109.093 31.7823 108.831 31.6578C108.568 31.5333 108.358 31.3258 108.201 31.0353C108.049 30.7402 107.973 30.3436 107.973 29.8456V22.4035ZM115.256 31.8445C114.735 31.8445 114.262 31.7569 113.838 31.5817C113.419 31.4019 113.057 31.1506 112.752 30.8278C112.453 30.505 112.222 30.1223 112.061 29.6797C111.899 29.237 111.819 28.7528 111.819 28.2272V27.9367C111.819 27.3281 111.908 26.7863 112.088 26.3113C112.268 25.8318 112.512 25.426 112.821 25.094C113.13 24.762 113.481 24.5107 113.873 24.3401C114.265 24.1695 114.67 24.0842 115.09 24.0842C115.625 24.0842 116.086 24.1765 116.473 24.3609C116.865 24.5453 117.186 24.8035 117.435 25.1355C117.684 25.4629 117.868 25.8502 117.988 26.2975C118.108 26.7402 118.168 27.2243 118.168 27.75V28.324H112.579V27.2796H116.888V27.1828C116.87 26.8508 116.801 26.5281 116.681 26.2145C116.566 25.901 116.381 25.6427 116.127 25.4399C115.874 25.237 115.528 25.1355 115.09 25.1355C114.8 25.1355 114.532 25.1978 114.288 25.3223C114.043 25.4422 113.834 25.622 113.658 25.8618C113.483 26.1015 113.347 26.3943 113.25 26.7402C113.153 27.086 113.105 27.4848 113.105 27.9367V28.2272C113.105 28.5822 113.153 28.9165 113.25 29.2301C113.352 29.539 113.497 29.8111 113.686 30.0462C113.88 30.2814 114.112 30.4658 114.385 30.5995C114.661 30.7333 114.975 30.8001 115.325 30.8001C115.777 30.8001 116.16 30.7079 116.473 30.5235C116.787 30.339 117.061 30.0923 117.296 29.7834L118.071 30.399C117.91 30.6433 117.704 30.8762 117.455 31.0975C117.206 31.3189 116.9 31.4987 116.536 31.637C116.176 31.7753 115.749 31.8445 115.256 31.8445ZM120.934 25.7096V31.7062H119.648V24.2226H120.865L120.934 25.7096ZM120.672 27.6808L120.077 27.66C120.081 27.1482 120.148 26.6756 120.277 26.2422C120.406 25.8041 120.598 25.4237 120.851 25.101C121.105 24.7782 121.421 24.5292 121.799 24.354C122.177 24.1741 122.615 24.0842 123.113 24.0842C123.464 24.0842 123.786 24.135 124.081 24.2364C124.377 24.3332 124.632 24.4877 124.849 24.6998C125.066 24.9119 125.234 25.184 125.354 25.5159C125.474 25.8479 125.534 26.2491 125.534 26.7194V31.7062H124.254V26.7817C124.254 26.3897 124.187 26.0762 124.054 25.841C123.925 25.6059 123.74 25.4352 123.5 25.3292C123.261 25.2185 122.979 25.1632 122.657 25.1632C122.279 25.1632 121.963 25.2301 121.709 25.3638C121.455 25.4975 121.253 25.6819 121.1 25.9171C120.948 26.1523 120.838 26.422 120.768 26.7263C120.704 27.026 120.672 27.3442 120.672 27.6808ZM125.52 26.9753L124.662 27.2381C124.667 26.8278 124.734 26.4335 124.863 26.0554C124.997 25.6773 125.188 25.3407 125.437 25.0456C125.691 24.7505 126.002 24.5177 126.371 24.3471C126.74 24.1718 127.162 24.0842 127.636 24.0842C128.038 24.0842 128.393 24.1373 128.702 24.2433C129.015 24.3494 129.278 24.5131 129.49 24.7344C129.707 24.9511 129.871 25.2301 129.981 25.5713C130.092 25.9125 130.147 26.3183 130.147 26.7886V31.7062H128.861V26.7747C128.861 26.3551 128.794 26.0301 128.66 25.7995C128.531 25.5644 128.347 25.4007 128.107 25.3084C127.872 25.2116 127.59 25.1632 127.263 25.1632C126.982 25.1632 126.733 25.2116 126.516 25.3084C126.299 25.4053 126.117 25.539 125.97 25.7096C125.822 25.8756 125.709 26.067 125.631 26.2837C125.557 26.5004 125.52 26.7309 125.52 26.9753ZM136.877 25.3984V31.7062H135.597V24.2226H136.842L136.877 25.3984ZM139.215 24.1811L139.208 25.3707C139.102 25.3476 139 25.3338 138.903 25.3292C138.811 25.32 138.705 25.3154 138.585 25.3154C138.29 25.3154 138.03 25.3615 137.804 25.4537C137.578 25.5459 137.386 25.675 137.23 25.841C137.073 26.007 136.948 26.2053 136.856 26.4358C136.769 26.6618 136.711 26.9108 136.683 27.1828L136.324 27.3903C136.324 26.9384 136.367 26.5142 136.455 26.1177C136.547 25.7211 136.688 25.3707 136.877 25.0664C137.066 24.7574 137.306 24.5177 137.596 24.3471C137.891 24.1718 138.242 24.0842 138.647 24.0842C138.74 24.0842 138.846 24.0958 138.966 24.1188C139.086 24.1373 139.169 24.158 139.215 24.1811ZM139.92 28.0474V27.8883C139.92 27.3488 139.999 26.8485 140.155 26.3874C140.312 25.9217 140.538 25.5182 140.833 25.177C141.128 24.8312 141.486 24.5638 141.905 24.3747C142.325 24.1811 142.795 24.0842 143.316 24.0842C143.842 24.0842 144.314 24.1811 144.734 24.3747C145.158 24.5638 145.518 24.8312 145.813 25.177C146.113 25.5182 146.341 25.9217 146.498 26.3874C146.654 26.8485 146.733 27.3488 146.733 27.8883V28.0474C146.733 28.5869 146.654 29.0871 146.498 29.5482C146.341 30.0093 146.113 30.4128 145.813 30.7586C145.518 31.0998 145.161 31.3673 144.741 31.5609C144.326 31.75 143.856 31.8445 143.33 31.8445C142.804 31.8445 142.332 31.75 141.912 31.5609C141.492 31.3673 141.133 31.0998 140.833 30.7586C140.538 30.4128 140.312 30.0093 140.155 29.5482C139.999 29.0871 139.92 28.5869 139.92 28.0474ZM141.2 27.8883V28.0474C141.2 28.4209 141.243 28.7736 141.331 29.1056C141.419 29.433 141.55 29.7235 141.725 29.9771C141.905 30.2307 142.129 30.4312 142.396 30.5788C142.664 30.7217 142.975 30.7932 143.33 30.7932C143.68 30.7932 143.987 30.7217 144.25 30.5788C144.517 30.4312 144.739 30.2307 144.914 29.9771C145.089 29.7235 145.22 29.433 145.308 29.1056C145.4 28.7736 145.446 28.4209 145.446 28.0474V27.8883C145.446 27.5194 145.4 27.1713 145.308 26.8439C145.22 26.5119 145.087 26.2191 144.907 25.9655C144.732 25.7073 144.51 25.5044 144.243 25.3569C143.98 25.2093 143.671 25.1355 143.316 25.1355C142.966 25.1355 142.657 25.2093 142.389 25.3569C142.126 25.5044 141.905 25.7073 141.725 25.9655C141.55 26.2191 141.419 26.5119 141.331 26.8439C141.243 27.1713 141.2 27.5194 141.2 27.8883ZM148.331 21.0825H149.617V30.2537L149.506 31.7062H148.331V21.0825ZM154.673 27.9021V28.0474C154.673 28.5915 154.608 29.0964 154.479 29.5621C154.35 30.0232 154.161 30.4243 153.912 30.7655C153.663 31.1067 153.359 31.3719 152.999 31.5609C152.64 31.75 152.227 31.8445 151.761 31.8445C151.286 31.8445 150.869 31.7638 150.509 31.6024C150.154 31.4364 149.854 31.199 149.61 30.89C149.366 30.5811 149.17 30.2076 149.022 29.7696C148.879 29.3315 148.78 28.8381 148.725 28.2894V27.6531C148.78 27.0998 148.879 26.6041 149.022 26.1661C149.17 25.728 149.366 25.3546 149.61 25.0456C149.854 24.7321 150.154 24.4946 150.509 24.3332C150.864 24.1672 151.277 24.0842 151.747 24.0842C152.218 24.0842 152.635 24.1765 152.999 24.3609C153.363 24.5407 153.668 24.7989 153.912 25.1355C154.161 25.4721 154.35 25.8756 154.479 26.3459C154.608 26.8116 154.673 27.3304 154.673 27.9021ZM153.386 28.0474V27.9021C153.386 27.5286 153.352 27.1782 153.283 26.8508C153.214 26.5188 153.103 26.2283 152.951 25.9793C152.799 25.7257 152.598 25.5275 152.349 25.3845C152.1 25.237 151.793 25.1632 151.429 25.1632C151.106 25.1632 150.825 25.2185 150.585 25.3292C150.35 25.4399 150.15 25.5897 149.984 25.7788C149.818 25.9632 149.682 26.1753 149.576 26.4151C149.474 26.6502 149.398 26.8946 149.347 27.1482V28.8151C149.421 29.1379 149.541 29.4491 149.707 29.7488C149.878 30.0439 150.103 30.286 150.385 30.475C150.671 30.6641 151.023 30.7586 151.443 30.7586C151.789 30.7586 152.084 30.6895 152.328 30.5511C152.577 30.4082 152.778 30.2122 152.93 29.9632C153.087 29.7142 153.202 29.426 153.276 29.0987C153.35 28.7713 153.386 28.4209 153.386 28.0474ZM155.952 28.0474V27.8883C155.952 27.3488 156.031 26.8485 156.188 26.3874C156.344 25.9217 156.57 25.5182 156.865 25.177C157.161 24.8312 157.518 24.5638 157.938 24.3747C158.357 24.1811 158.827 24.0842 159.348 24.0842C159.874 24.0842 160.347 24.1811 160.766 24.3747C161.191 24.5638 161.55 24.8312 161.845 25.177C162.145 25.5182 162.373 25.9217 162.53 26.3874C162.687 26.8485 162.765 27.3488 162.765 27.8883V28.0474C162.765 28.5869 162.687 29.0871 162.53 29.5482C162.373 30.0093 162.145 30.4128 161.845 30.7586C161.55 31.0998 161.193 31.3673 160.773 31.5609C160.358 31.75 159.888 31.8445 159.362 31.8445C158.837 31.8445 158.364 31.75 157.944 31.5609C157.525 31.3673 157.165 31.0998 156.865 30.7586C156.57 30.4128 156.344 30.0093 156.188 29.5482C156.031 29.0871 155.952 28.5869 155.952 28.0474ZM157.232 27.8883V28.0474C157.232 28.4209 157.276 28.7736 157.363 29.1056C157.451 29.433 157.582 29.7235 157.758 29.9771C157.938 30.2307 158.161 30.4312 158.429 30.5788C158.696 30.7217 159.007 30.7932 159.362 30.7932C159.713 30.7932 160.019 30.7217 160.282 30.5788C160.55 30.4312 160.771 30.2307 160.946 29.9771C161.121 29.7235 161.253 29.433 161.34 29.1056C161.433 28.7736 161.479 28.4209 161.479 28.0474V27.8883C161.479 27.5194 161.433 27.1713 161.34 26.8439C161.253 26.5119 161.119 26.2191 160.939 25.9655C160.764 25.7073 160.543 25.5044 160.275 25.3569C160.012 25.2093 159.704 25.1355 159.348 25.1355C158.998 25.1355 158.689 25.2093 158.422 25.3569C158.159 25.5044 157.938 25.7073 157.758 25.9655C157.582 26.2191 157.451 26.5119 157.363 26.8439C157.276 27.1713 157.232 27.5194 157.232 27.8883ZM167.503 24.2226V25.2047H163.457V24.2226H167.503ZM164.826 22.4035H166.106V29.8526C166.106 30.1062 166.145 30.2975 166.223 30.4266C166.302 30.5557 166.403 30.641 166.528 30.6825C166.652 30.724 166.786 30.7448 166.929 30.7448C167.035 30.7448 167.146 30.7356 167.261 30.7171C167.381 30.6941 167.471 30.6756 167.531 30.6618L167.538 31.7062C167.436 31.7385 167.302 31.7684 167.136 31.7961C166.975 31.8284 166.779 31.8445 166.549 31.8445C166.235 31.8445 165.947 31.7823 165.684 31.6578C165.421 31.5333 165.211 31.3258 165.055 31.0353C164.902 30.7402 164.826 30.3436 164.826 29.8456V22.4035ZM172.109 31.8445C171.588 31.8445 171.116 31.7569 170.691 31.5817C170.272 31.4019 169.91 31.1506 169.606 30.8278C169.306 30.505 169.075 30.1223 168.914 29.6797C168.753 29.237 168.672 28.7528 168.672 28.2272V27.9367C168.672 27.3281 168.762 26.7863 168.942 26.3113C169.121 25.8318 169.366 25.426 169.675 25.094C169.984 24.762 170.334 24.5107 170.726 24.3401C171.118 24.1695 171.524 24.0842 171.943 24.0842C172.478 24.0842 172.939 24.1765 173.327 24.3609C173.719 24.5453 174.039 24.8035 174.288 25.1355C174.537 25.4629 174.721 25.8502 174.841 26.2975C174.961 26.7402 175.021 27.2243 175.021 27.75V28.324H169.433V27.2796H173.742V27.1828C173.723 26.8508 173.654 26.5281 173.534 26.2145C173.419 25.901 173.234 25.6427 172.981 25.4399C172.727 25.237 172.381 25.1355 171.943 25.1355C171.653 25.1355 171.385 25.1978 171.141 25.3223C170.897 25.4422 170.687 25.622 170.512 25.8618C170.336 26.1015 170.2 26.3943 170.104 26.7402C170.007 27.086 169.958 27.4848 169.958 27.9367V28.2272C169.958 28.5822 170.007 28.9165 170.104 29.2301C170.205 29.539 170.35 29.8111 170.539 30.0462C170.733 30.2814 170.966 30.4658 171.238 30.5995C171.515 30.7333 171.828 30.8001 172.179 30.8001C172.63 30.8001 173.013 30.7079 173.327 30.5235C173.64 30.339 173.915 30.0923 174.15 29.7834L174.924 30.399C174.763 30.6433 174.558 30.8762 174.309 31.0975C174.06 31.3189 173.753 31.4987 173.389 31.637C173.029 31.7753 172.603 31.8445 172.109 31.8445ZM177.788 25.7096V31.7062H176.501V24.2226H177.719L177.788 25.7096ZM177.525 27.6808L176.93 27.66C176.935 27.1482 177.002 26.6756 177.131 26.2422C177.26 25.8041 177.451 25.4237 177.705 25.101C177.958 24.7782 178.274 24.5292 178.652 24.354C179.03 24.1741 179.468 24.0842 179.966 24.0842C180.317 24.0842 180.64 24.135 180.935 24.2364C181.23 24.3332 181.486 24.4877 181.702 24.6998C181.919 24.9119 182.088 25.184 182.207 25.5159C182.327 25.8479 182.387 26.2491 182.387 26.7194V31.7062H181.108V26.7817C181.108 26.3897 181.041 26.0762 180.907 25.841C180.778 25.6059 180.594 25.4352 180.354 25.3292C180.114 25.2185 179.833 25.1632 179.51 25.1632C179.132 25.1632 178.816 25.2301 178.562 25.3638C178.309 25.4975 178.106 25.6819 177.954 25.9171C177.802 26.1523 177.691 26.422 177.622 26.7263C177.557 27.026 177.525 27.3442 177.525 27.6808ZM182.373 26.9753L181.516 27.2381C181.52 26.8278 181.587 26.4335 181.716 26.0554C181.85 25.6773 182.041 25.3407 182.29 25.0456C182.544 24.7505 182.855 24.5177 183.224 24.3471C183.593 24.1718 184.015 24.0842 184.49 24.0842C184.891 24.0842 185.246 24.1373 185.555 24.2433C185.869 24.3494 186.131 24.5131 186.343 24.7344C186.56 24.9511 186.724 25.2301 186.835 25.5713C186.945 25.9125 187 26.3183 187 26.7886V31.7062H185.714V26.7747C185.714 26.3551 185.647 26.0301 185.513 25.7995C185.384 25.5644 185.2 25.4007 184.96 25.3084C184.725 25.2116 184.444 25.1632 184.116 25.1632C183.835 25.1632 183.586 25.2116 183.369 25.3084C183.153 25.4053 182.971 25.539 182.823 25.7096C182.675 25.8756 182.562 26.067 182.484 26.2837C182.41 26.5004 182.373 26.7309 182.373 26.9753Z" fill="#383838"/>
<rect x="23.0186" y="11" width="27.129" height="27.129" fill="white"/>
<path d="M32.4548 32.9323L25.1055 25.5247L27.1175 23.4963L32.4548 28.8769L45.359 15.8694L47.3695 17.8963L32.4548 32.9323Z" fill="#00C13C"/>
</svg>
