<svg width="24" height="24" viewBox="0 0 24 24" fill="none" xmlns="http://www.w3.org/2000/svg">
<path d="M23.0062 11.0599C23.0062 5.504 18.5022 1.00006 12.9463 1.00006" stroke="#374957" stroke-width="1.5" stroke-miterlimit="10" stroke-linecap="round" stroke-linejoin="round"/>
<path d="M16.09 11.0599C16.09 9.67096 14.6825 8.54497 12.9463 8.54497" stroke="#374957" stroke-width="1.5" stroke-miterlimit="10" stroke-linecap="round" stroke-linejoin="round"/>
<path d="M19.2337 11.0599C19.2337 7.58748 16.4187 4.77251 12.9463 4.77251" stroke="#374957" stroke-width="1.5" stroke-miterlimit="10" stroke-linecap="round" stroke-linejoin="round"/>
<path d="M14.7849 14.5878L13.0691 16.2994C13.0691 16.2994 11.8123 15.9629 9.94038 14.0957C8.06854 12.2285 7.72319 10.9346 7.72319 10.9346L9.42293 9.23904L4.31496 4.14371L1.00007 7.4504C1.00007 7.4504 0.918365 12.2824 6.34592 17.6965C11.7735 23.1106 16.5007 23.0058 16.5007 23.0058L19.8623 19.6526L14.7849 14.5878Z" stroke="#374957" stroke-width="1.5" stroke-miterlimit="10" stroke-linecap="round" stroke-linejoin="round"/>
</svg>
