<svg width="22" height="10" viewBox="0 0 22 10" fill="none" xmlns="http://www.w3.org/2000/svg">
<path d="M21.2594 4.42915C21.2591 4.42891 21.2589 4.42863 21.2587 4.42839L16.9724 0.234836C16.6512 -0.0793172 16.1319 -0.0781481 15.8122 0.237578C15.4926 0.553264 15.4939 1.06387 15.815 1.37806L18.6928 4.19355H1.32031C0.867254 4.19355 0.5 4.5546 0.5 5C0.5 5.4454 0.867254 5.80645 1.32031 5.80645H18.6928L15.815 8.62194C15.4939 8.93613 15.4927 9.44674 15.8123 9.76242C16.1319 10.0782 16.6513 10.0793 16.9724 9.76516L21.2587 5.57161C21.2589 5.57137 21.2591 5.57109 21.2594 5.57085C21.5807 5.25561 21.5797 4.74335 21.2594 4.42915Z" fill="white"/>
</svg>
